<svg width="16" height="16" viewBox="0 0 16 16" fill="none" xmlns="http://www.w3.org/2000/svg">
<g clip-path="url(#clip0_190_327)">
<path d="M7.33333 4.66671L4 1.33337" stroke="#B6B6B6" stroke-width="2" stroke-linecap="round" stroke-linejoin="round"/>
<path d="M12.661 8H1.36035" stroke="#B6B6B6" stroke-width="2" stroke-linecap="round" stroke-linejoin="round"/>
<path d="M14.0968 12.2533C13.708 11.9338 13.4389 11.492 13.3334 11C13.2299 11.4928 12.9605 11.9352 12.5701 12.2533C12.1868 12.56 12.0001 12.9333 12.0001 13.3167C11.9979 13.4932 12.0308 13.6683 12.0968 13.832C12.1628 13.9957 12.2607 14.1447 12.3847 14.2703C12.5087 14.3959 12.6565 14.4956 12.8193 14.5636C12.9822 14.6316 13.1569 14.6667 13.3334 14.6667C13.5099 14.6667 13.6847 14.6316 13.8476 14.5636C14.0104 14.4956 14.1582 14.3959 14.2822 14.2703C14.4062 14.1447 14.5041 13.9957 14.5701 13.832C14.6361 13.6683 14.669 13.4932 14.6668 13.3167C14.6668 12.93 14.4768 12.5633 14.0968 12.2533Z" stroke="#B6B6B6" stroke-width="2" stroke-linecap="round" stroke-linejoin="round"/>
<path d="M5.66711 3.00001L7.09911 1.56801C7.24976 1.41738 7.45407 1.33276 7.66711 1.33276C7.88015 1.33276 8.08446 1.41738 8.23511 1.56801L13.0991 6.43201C13.2497 6.58266 13.3344 6.78698 13.3344 7.00001C13.3344 7.21305 13.2497 7.41736 13.0991 7.56801L8.03778 12.6293C7.58582 13.0812 6.97289 13.3351 6.33378 13.3351C5.69467 13.3351 5.08173 13.0812 4.62978 12.6293L2.03778 10.0373C1.58589 9.58539 1.33203 8.97245 1.33203 8.33335C1.33203 7.69424 1.58589 7.0813 2.03778 6.62935L3.78044 4.88668" stroke="#B6B6B6" stroke-width="2" stroke-linecap="round" stroke-linejoin="round"/>
</g>
<defs>
<clipPath id="clip0_190_327">
<rect width="16" height="16" fill="white"/>
</clipPath>
</defs>
</svg>
