<svg width="16" height="16" viewBox="0 0 16 16" fill="none" xmlns="http://www.w3.org/2000/svg">
<path d="M9.33333 8.66671V5.66671C9.33333 4.66671 10 4.66671 10 3.33337C10 2.80294 9.78929 2.29423 9.41421 1.91916C9.03914 1.54409 8.53043 1.33337 8 1.33337C7.46957 1.33337 6.96086 1.54409 6.58579 1.91916C6.21071 2.29423 6 2.80294 6 3.33337C6 4.66671 6.66667 4.66671 6.66667 5.66671V8.66671" stroke="#B6B6B6" stroke-width="2" stroke-linecap="round" stroke-linejoin="round"/>
<path d="M13.3337 10.3333C13.3337 9.89127 13.1581 9.46734 12.8455 9.15478C12.5329 8.84222 12.109 8.66663 11.667 8.66663H4.33366C3.89163 8.66663 3.46771 8.84222 3.15515 9.15478C2.84259 9.46734 2.66699 9.89127 2.66699 10.3333V11.3333C2.66699 11.5101 2.73723 11.6797 2.86225 11.8047C2.98728 11.9297 3.15685 12 3.33366 12H12.667C12.8438 12 13.0134 11.9297 13.1384 11.8047C13.2634 11.6797 13.3337 11.5101 13.3337 11.3333V10.3333Z" stroke="#B6B6B6" stroke-width="2" stroke-linecap="round" stroke-linejoin="round"/>
<path d="M3.33301 14.6666H12.6663" stroke="#B6B6B6" stroke-width="2" stroke-linecap="round" stroke-linejoin="round"/>
</svg>
